<svg xmlns="http://www.w3.org/2000/svg" width="25" height="30" viewBox="0 0 25 30"><defs><style>.a{fill:#fff;}</style></defs><path class="a" d="M26.1.72H6.1a2.507,2.507,0,0,0-2.5,2.5v25a2.507,2.507,0,0,0,2.5,2.5h20a2.507,2.507,0,0,0,2.5-2.5v-25A2.507,2.507,0,0,0,26.1.72Zm-15,25a1.254,1.254,0,0,1-1.25,1.25H7.35A1.254,1.254,0,0,1,6.1,25.72v-.625a1.254,1.254,0,0,1,1.25-1.25h2.5a1.254,1.254,0,0,1,1.25,1.25Zm0-5a1.254,1.254,0,0,1-1.25,1.25H7.35A1.254,1.254,0,0,1,6.1,20.72v-.625a1.254,1.254,0,0,1,1.25-1.25h2.5a1.254,1.254,0,0,1,1.25,1.25Zm0-5a1.254,1.254,0,0,1-1.25,1.25H7.35A1.254,1.254,0,0,1,6.1,15.72v-.625a1.254,1.254,0,0,1,1.25-1.25h2.5a1.254,1.254,0,0,1,1.25,1.25Zm7.5,10a1.254,1.254,0,0,1-1.25,1.25h-2.5a1.254,1.254,0,0,1-1.25-1.25v-.625a1.254,1.254,0,0,1,1.25-1.25h2.5a1.254,1.254,0,0,1,1.25,1.25v.625Zm0-5a1.254,1.254,0,0,1-1.25,1.25h-2.5a1.254,1.254,0,0,1-1.25-1.25v-.625a1.254,1.254,0,0,1,1.25-1.25h2.5a1.254,1.254,0,0,1,1.25,1.25v.625Zm0-5a1.254,1.254,0,0,1-1.25,1.25h-2.5a1.254,1.254,0,0,1-1.25-1.25v-.625a1.254,1.254,0,0,1,1.25-1.25h2.5a1.254,1.254,0,0,1,1.25,1.25v.625Zm7.5,10a1.254,1.254,0,0,1-1.25,1.25h-2.5a1.254,1.254,0,0,1-1.25-1.25v-.625a1.254,1.254,0,0,1,1.25-1.25h2.5a1.254,1.254,0,0,1,1.25,1.25v.625Zm0-5a1.254,1.254,0,0,1-1.25,1.25h-2.5a1.254,1.254,0,0,1-1.25-1.25v-.625a1.254,1.254,0,0,1,1.25-1.25h2.5a1.254,1.254,0,0,1,1.25,1.25v.625Zm0-5a1.254,1.254,0,0,1-1.25,1.25h-2.5a1.254,1.254,0,0,1-1.25-1.25v-.625a1.254,1.254,0,0,1,1.25-1.25h2.5a1.254,1.254,0,0,1,1.25,1.25v.625Zm0-5.625a1.254,1.254,0,0,1-1.25,1.25H7.35a1.254,1.254,0,0,1-1.25-1.25v-5a1.254,1.254,0,0,1,1.25-1.25h17.5a1.254,1.254,0,0,1,1.25,1.25Z" transform="translate(-3.6 -0.72)"/></svg>