<svg xmlns="http://www.w3.org/2000/svg" width="7.751" height="6.755" viewBox="0 0 7.751 6.755"><defs><style>.a{fill:red;}</style></defs><g transform="translate(-17.959 -19.2)"><g transform="translate(17.959 19.2)"><path class="a" d="M25.639,25.108l-3.317-5.629a.56.56,0,0,0-.968,0l-3.317,5.629a.563.563,0,0,0,.484.847h6.634A.571.571,0,0,0,25.639,25.108Zm-.424.315a.13.13,0,0,1-.061.048H18.521a.073.073,0,0,1-.061-.048c-.024-.036-.012-.073,0-.073l3.317-5.629h0c0-.012.024-.036.061-.036s.061.024.061.036h0l3.317,5.629A.053.053,0,0,1,25.215,25.422Z" transform="translate(-17.959 -19.2)"/><rect class="a" width="0.484" height="2.905" transform="translate(3.637 1.913)"/><rect class="a" width="0.484" height="0.484" transform="translate(3.637 5.302)"/></g></g></svg>