<svg xmlns="http://www.w3.org/2000/svg" width="30.999" height="30.974" viewBox="0 0 30.999 30.974"><defs><style>.a{fill:#fff;}</style></defs><path class="a" d="M30.942,14.544A15.487,15.487,0,0,0,15.578.009h-.183A15.484,15.484,0,0,0,.03,14.535c-.019.319-.03.638-.03.965s.013.646.032.963a15.359,15.359,0,0,0,2.225,7.09,15.356,15.356,0,0,0,13.114,7.43H15.6A15.485,15.485,0,0,0,30.96,16.467c.018-.31.039-.641.039-.949s0-.639-.021-.948l-.035-.028ZM15.5,20.2v4.947c.124,3.022-.736,3.526-1.769,3.572-.044,0-.085,0-.129.005A13.365,13.365,0,0,1,2.258,17.33a13.067,13.067,0,0,1,0-3.665A13.36,13.36,0,0,1,13.584,2.273l.149.013c1.033.056,1.892.555,1.769,3.57V10.8a5.722,5.722,0,0,0,2.4,4.7,5.365,5.365,0,0,0-2.4,4.693Z" transform="translate(0 -0.009)"/></svg>