<svg xmlns="http://www.w3.org/2000/svg" width="31.893" height="27.906" viewBox="0 0 31.893 27.906"><defs><style>.a{fill:#fff;}</style></defs><path class="a" d="M15.946,2.25A15.938,15.938,0,0,0,0,18.2v2.99a1.993,1.993,0,0,0,1.1,1.783l.9.448A6.976,6.976,0,0,0,8.97,30.156h1.495a1.5,1.5,0,0,0,1.495-1.495V17.7A1.5,1.5,0,0,0,10.465,16.2H8.97A6.955,6.955,0,0,0,3.987,18.3v-.1a11.96,11.96,0,0,1,23.92,0v.1A6.955,6.955,0,0,0,22.923,16.2H21.428A1.5,1.5,0,0,0,19.933,17.7V28.661a1.5,1.5,0,0,0,1.495,1.495h1.495A6.976,6.976,0,0,0,29.9,23.417l.9-.448a1.993,1.993,0,0,0,1.1-1.783V18.2A15.938,15.938,0,0,0,15.946,2.25Z" transform="translate(0 -2.25)"/></svg>