<svg xmlns="http://www.w3.org/2000/svg" width="10.208" height="8.803" viewBox="0 0 10.208 8.803"><defs><style>.a{opacity:0.2;}.b{fill:#072046;}</style></defs><g class="a" transform="translate(925 -1053.297)"><g transform="translate(21.675 93.272)"><path class="b" d="M-905.575,986.095a7.168,7.168,0,0,0-1.909-1.695l-.7.7a6.242,6.242,0,0,1,1.534,1.2,5.781,5.781,0,0,1-2.735,1.673,2.067,2.067,0,0,0,.847-1.673,2.046,2.046,0,0,0-.129-.729L-912,988.9a5.783,5.783,0,0,0,1.394.161,6.537,6.537,0,0,0,5.03-2.574A.338.338,0,0,0-905.575,986.095Z" transform="translate(-30.956 -21.761)"/><path class="b" d="M-937.539,960.162a.486.486,0,0,0-.676,0l-1.813,1.813a5.847,5.847,0,0,0-1.545-.2,6.537,6.537,0,0,0-5.03,2.574.323.323,0,0,0,0,.408,6.926,6.926,0,0,0,2.027,1.759l-1.5,1.5a.486.486,0,0,0,0,.676.463.463,0,0,0,.333.139.446.446,0,0,0,.332-.139l7.851-7.851A.45.45,0,0,0-937.539,960.162Zm-7.969,4.376a5.781,5.781,0,0,1,2.735-1.673,2.067,2.067,0,0,0-.847,1.673,2.124,2.124,0,0,0,.182.858l-.408.408A5.9,5.9,0,0,1-945.509,964.538Z"/></g></g></svg>