<svg xmlns="http://www.w3.org/2000/svg" width="21.508" height="21.508" viewBox="0 0 21.508 21.508"><defs><style>.a{fill:#072046;}</style></defs><path class="a" d="M11.317.563A10.754,10.754,0,1,0,22.071,11.317,10.752,10.752,0,0,0,11.317.563Zm-.694,14.223a.7.7,0,0,1-.694.694H7.848a.7.7,0,0,1-.694-.694V7.848a.7.7,0,0,1,.694-.694H9.929a.7.7,0,0,1,.694.694Zm4.857,0a.7.7,0,0,1-.694.694H12.7a.7.7,0,0,1-.694-.694V7.848a.7.7,0,0,1,.694-.694h2.081a.7.7,0,0,1,.694.694Z" transform="translate(-0.563 -0.563)"/></svg>