<svg xmlns="http://www.w3.org/2000/svg" width="28.876" height="28.869" viewBox="0 0 28.876 28.869"><defs><style>.a{fill:#fff;}</style></defs><path class="a" d="M6.18,2.347A7.461,7.461,0,0,0,.264,7.786C0,8.8-.019,9.391.013,17.227c.013,7.192.019,7.36.142,7.92A7.485,7.485,0,0,0,5.974,30.98,25.949,25.949,0,0,0,10.1,31.1c3.345.026,3.693.019,3.783-.071s.1-1.244.1-14.32c0-9.7-.019-14.262-.058-14.345-.058-.11-.161-.116-3.667-.11a39.1,39.1,0,0,0-4.079.09Zm5.407,14.345V28.8l-2.436-.032a13.121,13.121,0,0,1-2.932-.148,5.079,5.079,0,0,1-3.757-3.912C2.333,24.1,2.333,9.236,2.455,8.643a5.137,5.137,0,0,1,3.093-3.7c.786-.316,1.154-.354,3.712-.361l2.314-.006V16.692ZM6.7,8.237a3.291,3.291,0,0,0-1.257.625,2.641,2.641,0,0,0-.889,2.223,1.875,1.875,0,0,0,.245.98,2.707,2.707,0,0,0,1.282,1.289,1.846,1.846,0,0,0,1.025.238,2.112,2.112,0,0,0,.954-.11,2.694,2.694,0,0,0,1.856-2.99A2.736,2.736,0,0,0,6.7,8.237Zm10.2-5.948c-.026.019-.039,6.5-.039,14.4,0,13.037.006,14.358.1,14.4.161.058,4.8.039,5.375-.026a7.463,7.463,0,0,0,5.736-3.944,9.814,9.814,0,0,0,.451-1.044c.374-1.121.367-.825.367-9.415,0-6.857-.013-7.882-.1-8.313a7.427,7.427,0,0,0-6.09-6,23.507,23.507,0,0,0-3.145-.09c-1.444-.006-2.636.013-2.655.032Zm6.386,13.024a2.93,2.93,0,0,1,2.011,1.862,3.088,3.088,0,0,1-.006,1.9,2.9,2.9,0,0,1-5.523-.142,3.486,3.486,0,0,1,.026-1.688,2.891,2.891,0,0,1,3.493-1.933Z" transform="translate(-0.001 -2.255)"/></svg>