<svg xmlns="http://www.w3.org/2000/svg" width="30" height="19.091" viewBox="0 0 30 19.091"><defs><style>.a{fill:#fff;}</style></defs><path class="a" d="M21.955,15.682a4.091,4.091,0,1,0-4.091-4.091A4.074,4.074,0,0,0,21.955,15.682Zm-10.909,0a4.091,4.091,0,1,0-4.091-4.091A4.074,4.074,0,0,0,11.045,15.682Zm0,2.727C7.868,18.409,1.5,20,1.5,23.182v3.409H20.591V23.182C20.591,20,14.223,18.409,11.045,18.409Zm10.909,0c-.4,0-.845.027-1.323.068a5.754,5.754,0,0,1,2.686,4.7v3.409H31.5V23.182C31.5,20,25.132,18.409,21.955,18.409Z" transform="translate(-1.5 -7.5)"/></svg>